<svg version="1.1" id="Layer_1" xmlns="http://www.w3.org/2000/svg" xmlns:xlink="http://www.w3.org/1999/xlink" x="0px" y="0px"
	 width="100%" viewBox="0 0 403 403" enable-background="new 0 0 403 403" xml:space="preserve">
<path fill="#FEFFFF" opacity="1.000000" stroke="none" 
	d="
M1.000008,397.000000 
	C1.000000,267.645782 1.000000,138.291550 1.285101,8.765327 
	C4.046801,6.062227 6.523400,3.531114 9.000000,1.000000 
	C88.354225,1.000000 167.708450,1.000000 247.305176,1.236690 
	C247.563187,1.691073 247.578720,1.908766 247.485809,2.577159 
	C247.377380,81.570229 247.377380,160.112610 247.377380,239.112167 
	C234.191437,239.112167 221.812378,239.112167 208.306259,239.112167 
	C235.749023,267.495605 262.409790,295.070251 289.266022,322.847076 
	C316.369965,294.802582 343.009308,267.238770 370.586243,238.704895 
	C355.650452,238.704895 342.228058,238.704895 328.335175,238.704895 
	C328.335175,236.333252 328.335175,234.370789 328.335175,232.408325 
	C328.335144,157.607269 328.336975,82.806198 328.325165,8.005140 
	C328.324860,6.012889 328.176910,4.020663 328.146881,1.764326 
	C328.130615,1.333485 328.065308,1.166742 328.000000,1.000000 
	C350.354218,1.000000 372.708466,1.000000 395.233459,1.291379 
	C397.306671,5.011520 399.031982,8.677521 404.000000,8.000000 
	C404.000000,137.354233 404.000000,266.708466 403.714233,396.234558 
	C400.952301,398.937622 398.476166,401.468811 396.000000,404.000000 
	C319.645782,404.000000 243.291550,404.000000 166.500229,403.532227 
	C166.063141,324.182953 166.063141,245.301483 166.063141,165.829224 
	C180.143585,165.829224 193.473984,165.829224 207.832458,165.829224 
	C180.450211,137.510651 153.873398,110.025040 126.933098,82.163521 
	C99.951393,110.080063 73.348305,137.604874 45.676563,166.235367 
	C59.774673,166.235367 72.171257,166.235367 85.000000,166.235367 
	C85.000000,245.818100 85.000000,324.909058 85.000000,404.000000 
	C59.645771,404.000000 34.291542,404.000000 8.754340,403.720520 
	C6.047582,401.294037 3.523798,399.147003 1.000008,397.000000 
z"/>
<path fill="#29ABE2" opacity="1.000000" stroke="none" 
	d="
M85.468658,404.000000 
	C85.000000,324.909058 85.000000,245.818100 85.000000,166.235367 
	C72.171257,166.235367 59.774673,166.235367 45.676563,166.235367 
	C73.348305,137.604874 99.951393,110.080063 126.933098,82.163521 
	C153.873398,110.025040 180.450211,137.510651 207.832458,165.829224 
	C193.473984,165.829224 180.143585,165.829224 166.063141,165.829224 
	C166.063141,245.301483 166.063141,324.182953 166.031570,403.532227 
	C139.312439,404.000000 112.624878,404.000000 85.468658,404.000000 
z"/>
<path fill="#2AABE2" opacity="1.000000" stroke="none" 
	d="
M328.097809,2.028424 
	C328.176910,4.020663 328.324860,6.012889 328.325165,8.005140 
	C328.336975,82.806198 328.335144,157.607269 328.335175,232.408325 
	C328.335175,234.370789 328.335175,236.333252 328.335175,238.704895 
	C342.228058,238.704895 355.650452,238.704895 370.586243,238.704895 
	C343.009308,267.238770 316.369965,294.802582 289.266022,322.847076 
	C262.409790,295.070251 235.749023,267.495605 208.306259,239.112167 
	C221.812378,239.112167 234.191437,239.112167 247.377380,239.112167 
	C247.377380,160.112610 247.377380,81.570229 247.777069,2.461277 
	C248.451172,1.596462 248.725586,1.298230 249.000000,0.999999 
	C274.687561,1.000000 300.375122,1.000000 326.652344,1.230039 
	C327.527283,1.649527 327.812561,1.838975 328.097809,2.028424 
z"/>
<path fill="#000000" opacity="1.000000" stroke="none" 
	d="
M404.000000,7.502095 
	C399.031982,8.677521 397.306671,5.011520 395.702148,1.291379 
	C398.575470,1.000000 401.150970,1.000000 404.000000,1.000000 
	C404.000000,2.997643 404.000000,5.000916 404.000000,7.502095 
z"/>
<path fill="#000000" opacity="1.000000" stroke="none" 
	d="
M8.505266,1.000000 
	C6.523400,3.531114 4.046801,6.062227 1.285101,8.296671 
	C1.000000,5.745431 1.000000,3.490863 1.000000,1.000000 
	C3.334326,1.000000 5.672430,1.000000 8.505266,1.000000 
z"/>
<path fill="#000000" opacity="1.000000" stroke="none" 
	d="
M396.494751,404.000000 
	C398.476166,401.468811 400.952301,398.937622 403.714233,396.703217 
	C404.000000,399.254578 404.000000,401.509125 404.000000,404.000000 
	C401.665680,404.000000 399.327576,404.000000 396.494751,404.000000 
z"/>
<path fill="#000000" opacity="1.000000" stroke="none" 
	d="
M1.000008,397.497894 
	C3.523798,399.147003 6.047582,401.294037 8.285683,403.720520 
	C5.752364,404.000000 3.504728,404.000000 1.000000,404.000000 
	C1.000000,402.001862 1.000000,399.998840 1.000008,397.497894 
z"/>
<path fill="#1DA6E0" opacity="1.000000" stroke="none" 
	d="
M248.750000,0.999999 
	C248.725586,1.298230 248.451172,1.596462 247.885498,2.010577 
	C247.578720,1.908766 247.563187,1.691073 247.773834,1.236690 
	C248.000000,1.000000 248.500000,1.000000 248.750000,0.999999 
z"/>
<path fill="#18A4E0" opacity="1.000000" stroke="none" 
	d="
M328.146881,1.764325 
	C327.812561,1.838975 327.527283,1.649527 327.121033,1.230039 
	C327.000000,1.000000 327.500000,1.000000 327.750000,1.000000 
	C328.065308,1.166742 328.130615,1.333485 328.146881,1.764325 
z"/>
</svg>